{
  "asset": {
    "version": "2.0",
    "generator": "THREE.GLTFExporter"
  },
  "scenes": [
    {
      "nodes": [
        0
      ]
    }
  ],
  "scene": 0,
  "nodes": [
    {
      "children": [
        1,
        2,
        3,
        4,
        5,
        6,
        7
      ],
      "matrix": [
        0.01,
        0,
        0,
        0,
        0,
        0.01,
        0,
        0,
        0,
        0,
        0.01,
        0,
        0,
        0,
        0,
        1
      ]
    },
    {
      "matrix": [
        1,
        0,
        0,
        0,
        0,
        1,
        0,
        0,
        0,
        0,
        1,
        0,
        354.140625,
        310.3962794788313,
        499.56337691517547,
        1
      ],
      "name": "Point Light",
      "extensions": {
        "KHR_lights_punctual": {
          "light": 0
        }
      }
    },
    {
      "matrix": [
        1,
        0,
        0,
        0,
        0,
        1,
        0,
        0,
        0,
        0,
        1,
        0,
        4.55066826016912,
        7.282966136932373,
        7.53848118615133,
        1
      ],
      "name": "Text 2",
      "mesh": 0
    },
    {
      "matrix": [
        1,
        0,
        0,
        0,
        0,
        1,
        0,
        0,
        0,
        0,
        1,
        0,
        -60.54864911083723,
        7.282966136932373,
        7.203403339037322,
        1
      ],
      "name": "Text",
      "mesh": 1
    },
    {
      "matrix": [
        0.921168603215338,
        0,
        0,
        0,
        0,
        1.1518105079049519,
        0,
        0,
        0,
        0,
        0.907736068748469,
        0,
        -55.685032984305494,
        6.18576880589257,
        4.592174053192137,
        1
      ],
      "name": "Rectangle",
      "mesh": 2
    },
    {
      "matrix": [
        0.8276026769865621,
        0,
        0,
        0,
        0,
        1,
        0,
        0,
        0,
        0,
        1,
        0,
        -29.328699627969172,
        6.068890956432597,
        7,
        1
      ],
      "name": "Boolean",
      "mesh": 3
    },
    {
      "matrix": [
        0.9980945629491886,
        -4.336808689942018e-19,
        0.061702863882222424,
        0,
        0.004811676970072787,
        0.9969548124503317,
        -0.07783283174123715,
        0,
        -0.0615149670893494,
        0.07798142042899744,
        0.9950551778127041,
        0,
        -61.51496708935018,
        77.98142042899858,
        995.0551778127054,
        1
      ],
      "camera": 0
    },
    {
      "matrix": [
        1,
        0,
        0,
        0,
        0,
        1,
        0,
        0,
        0,
        0,
        1,
        0,
        0,
        1,
        0,
        1
      ],
      "name": "Default Ambient Light"
    }
  ],
  "extensions": {
    "KHR_lights_punctual": {
      "lights": [
        {
          "name": "Point Light",
          "color": [
            1,
            1,
            1
          ],
          "intensity": 1,
          "type": "point",
          "range": 2000
        }
      ]
    }
  },
  "bufferViews": [
    {
      "buffer": 0,
      "byteOffset": 0,
      "byteLength": 40560,
      "target": 34962,
      "byteStride": 12
    },
    {
      "buffer": 0,
      "byteOffset": 40560,
      "byteLength": 40560,
      "target": 34962,
      "byteStride": 12
    },
    {
      "buffer": 0,
      "byteOffset": 81120,
      "byteLength": 27040,
      "target": 34962,
      "byteStride": 8
    },
    {
      "buffer": 0,
      "byteOffset": 108160,
      "byteLength": 32208,
      "target": 34963
    },
    {
      "buffer": 0,
      "byteOffset": 140368,
      "byteLength": 38064,
      "target": 34962,
      "byteStride": 12
    },
    {
      "buffer": 0,
      "byteOffset": 178432,
      "byteLength": 38064,
      "target": 34962,
      "byteStride": 12
    },
    {
      "buffer": 0,
      "byteOffset": 216496,
      "byteLength": 25376,
      "target": 34962,
      "byteStride": 8
    },
    {
      "buffer": 0,
      "byteOffset": 241872,
      "byteLength": 30840,
      "target": 34963
    },
    {
      "buffer": 0,
      "byteOffset": 272712,
      "byteLength": 19680,
      "target": 34962,
      "byteStride": 12
    },
    {
      "buffer": 0,
      "byteOffset": 292392,
      "byteLength": 19680,
      "target": 34962,
      "byteStride": 12
    },
    {
      "buffer": 0,
      "byteOffset": 312072,
      "byteLength": 13120,
      "target": 34962,
      "byteStride": 8
    },
    {
      "buffer": 0,
      "byteOffset": 325192,
      "byteLength": 31440,
      "target": 34963
    },
    {
      "buffer": 0,
      "byteOffset": 356632,
      "byteLength": 78720,
      "target": 34962,
      "byteStride": 12
    },
    {
      "buffer": 0,
      "byteOffset": 435352,
      "byteLength": 78720,
      "target": 34962,
      "byteStride": 12
    },
    {
      "buffer": 0,
      "byteOffset": 514072,
      "byteLength": 39312,
      "target": 34963
    }
  ],
  "buffers": [
    {
      "byteLength": 553384,
      "uri": "data:application/octet-stream;base64,"
    }
  ],
  "accessors": [
    {
      "bufferView": 0,
      "componentType": 5126,
      "count": 3380,
      "max": [
        16.164403915405273,
        6.595939636230469,
        3.8724188804626465
      ],
      "min": [
        -16.241357803344727,
        -7.282966136932373,
        0
      ],
      "type": "VEC3"
    },
    {
      "bufferView": 1,
      "componentType": 5126,
      "count": 3380,
      "max": [
        1,
        1,
        1
      ],
      "min": [
        -1,
        -1,
        -1
      ],
      "type": "VEC3"
    },
    {
      "bufferView": 2,
      "componentType": 5126,
      "count": 3380,
      "max": [
        1,
        1
      ],
      "min": [
        0,
        0
      ],
      "type": "VEC2"
    },
    {
      "bufferView": 3,
      "componentType": 5123,
      "count": 16104,
      "max": [
        3379
      ],
      "min": [
        0
      ],
      "type": "SCALAR"
    },
    {
      "bufferView": 4,
      "componentType": 5126,
      "count": 3172,
      "max": [
        9.748138427734375,
        6.595939636230469,
        4
      ],
      "min": [
        -14.168853759765625,
        -7.282966136932373,
        0
      ],
      "type": "VEC3"
    },
    {
      "bufferView": 5,
      "componentType": 5126,
      "count": 3172,
      "max": [
        1,
        1,
        1
      ],
      "min": [
        -1,
        -1,
        -1
      ],
      "type": "VEC3"
    },
    {
      "bufferView": 6,
      "componentType": 5126,
      "count": 3172,
      "max": [
        1,
        1
      ],
      "min": [
        0,
        0
      ],
      "type": "VEC2"
    },
    {
      "bufferView": 7,
      "componentType": 5123,
      "count": 15420,
      "max": [
        3171
      ],
      "min": [
        0
      ],
      "type": "SCALAR"
    },
    {
      "bufferView": 8,
      "componentType": 5126,
      "count": 1640,
      "max": [
        36.62529754638672,
        10.14037799835205,
        10.815651893615723
      ],
      "min": [
        -36.62529754638672,
        -10.14037799835205,
        0
      ],
      "type": "VEC3"
    },
    {
      "bufferView": 9,
      "componentType": 5126,
      "count": 1640,
      "max": [
        1,
        1,
        1
      ],
      "min": [
        -1,
        -1,
        -1
      ],
      "type": "VEC3"
    },
    {
      "bufferView": 10,
      "componentType": 5126,
      "count": 1640,
      "max": [
        1,
        1
      ],
      "min": [
        0,
        0
      ],
      "type": "VEC2"
    },
    {
      "bufferView": 11,
      "componentType": 5125,
      "count": 7860,
      "max": [
        1639
      ],
      "min": [
        0
      ],
      "type": "SCALAR"
    },
    {
      "bufferView": 12,
      "componentType": 5126,
      "count": 6560,
      "max": [
        89.87895202636719,
        22.05544662475586,
        6
      ],
      "min": [
        -89.87895202636719,
        -22.05544662475586,
        -6
      ],
      "type": "VEC3"
    },
    {
      "bufferView": 13,
      "componentType": 5126,
      "count": 6560,
      "max": [
        0.9999821782112122,
        0.9999639391899109,
        1
      ],
      "min": [
        -0.9999822974205017,
        -0.9999639391899109,
        -0.994540810585022
      ],
      "type": "VEC3"
    },
    {
      "bufferView": 14,
      "componentType": 5125,
      "count": 9828,
      "max": [
        6559
      ],
      "min": [
        0
      ],
      "type": "SCALAR"
    }
  ],
  "materials": [
    {
      "alphaMode": "BLEND",
      "pbrMetallicRoughness": {
        "baseColorFactor": [
          0.8148465722120952,
          0,
          0,
          0.558
        ],
        "metallicFactor": 0.2,
        "roughnessFactor": 0.2
      },
      "doubleSided": false
    },
    {
      "pbrMetallicRoughness": {
        "baseColorFactor": [
          0.17866504468351388,
          0.5883311413745537,
          0.07642375529970688,
          1
        ],
        "metallicFactor": 0,
        "roughnessFactor": 1
      },
      "doubleSided": false
    },
    {
      "pbrMetallicRoughness": {
        "baseColorFactor": [
          0.14272131685947406,
          0.14272131685947406,
          0.14272131685947406,
          1
        ],
        "metallicFactor": 0,
        "roughnessFactor": 0.2
      },
      "doubleSided": false
    },
    {
      "pbrMetallicRoughness": {
        "baseColorFactor": [
          0.12928418067141967,
          0.12928418067141967,
          0.12928418067141967,
          1
        ],
        "metallicFactor": 0,
        "roughnessFactor": 0.59
      },
      "doubleSided": false
    }
  ],
  "meshes": [
    {
      "primitives": [
        {
          "mode": 4,
          "attributes": {
            "POSITION": 0,
            "NORMAL": 1,
            "TEXCOORD_0": 2
          },
          "extras": {
            "parameters": {
              "type": "TextGeometry",
              "width": 34.672169745606354,
              "height": 21.593441883057217,
              "depth": 3.8724188740743557,
              "horizontalAlign": 1,
              "verticalAlign": 1,
              "fontSize": 19,
              "lineHeight": 1.2,
              "letterSpacing": 0,
              "text": "OFF",
              "textTransform": 1,
              "font": "Roboto_regular",
              "extrudeBevelSize": 0.48,
              "extrudeBevelSegments": 4
            },
            "type": "TextGeometry"
          },
          "indices": 3,
          "material": 0
        }
      ]
    },
    {
      "primitives": [
        {
          "mode": 4,
          "attributes": {
            "POSITION": 4,
            "NORMAL": 5,
            "TEXCOORD_0": 6
          },
          "extras": {
            "parameters": {
              "type": "TextGeometry",
              "width": 30.52716034720599,
              "height": 21.593441883057217,
              "depth": 4,
              "horizontalAlign": 1,
              "verticalAlign": 1,
              "fontSize": 19,
              "lineHeight": 1.2,
              "letterSpacing": 0,
              "text": "ON",
              "textTransform": 1,
              "font": "Roboto_regular",
              "extrudeBevelSize": 0.48,
              "extrudeBevelSegments": 4
            },
            "type": "TextGeometry"
          },
          "indices": 7,
          "material": 1
        }
      ]
    },
    {
      "primitives": [
        {
          "mode": 4,
          "attributes": {
            "POSITION": 8,
            "NORMAL": 9,
            "TEXCOORD_0": 10
          },
          "extras": {
            "shape": {
              "points": [
                -36.62529940612489,
                10.140378016881078,
                -36.62529940612489,
                10.140378016881078,
                -36.62529940612489,
                10.140378016881078,
                10,
                36.62529940612489,
                10.140378016881078,
                36.62529940612489,
                10.140378016881078,
                36.62529940612489,
                10.140378016881078,
                10,
                36.62529940612489,
                -10.140378016881078,
                36.62529940612489,
                -10.140378016881078,
                36.62529940612489,
                -10.140378016881078,
                10,
                -36.62529940612489,
                -10.140378016881078,
                -36.62529940612489,
                -10.140378016881078,
                -36.62529940612489,
                -10.140378016881078,
                10
              ],
              "shapeHoles": [],
              "isClosed": true,
              "roundness": 10
            },
            "parameters": {
              "width": 73.25059881224978,
              "depth": 10.815651914228512,
              "cornerRadius": [
                10,
                10,
                10,
                10
              ],
              "cornerType": 1,
              "extrudeBevelSize": 0.5,
              "extrudeBevelSegments": 3,
              "height": 20.280756033762156,
              "type": "RectangleGeometry"
            },
            "ui": {
              "enabledIndieCorners": false
            },
            "type": "RectangleGeometry"
          },
          "indices": 11,
          "material": 2
        }
      ]
    },
    {
      "primitives": [
        {
          "mode": 4,
          "attributes": {
            "POSITION": 12,
            "NORMAL": 13
          },
          "extras": {
            "type": "SubdivGeometry",
            "parameters": {
              "width": 179.75790405273438,
              "height": 44.11089324951172,
              "depth": 12
            }
          },
          "indices": 14,
          "material": 3
        }
      ]
    }
  ],
  "cameras": [
    {
      "type": "orthographic",
      "orthographic": {
        "xmag": 2.0195739492893052,
        "ymag": 1.0168870393101228,
        "zfar": 100000,
        "znear": 0
      }
    }
  ],
  "extensionsUsed": [
    "KHR_lights_punctual"
  ]
}